<?xml version="1.0" encoding="utf-8"?>
<!-- Generator: Adobe Illustrator 16.0.0, SVG Export Plug-In . SVG Version: 6.00 Build 0)  -->
<!DOCTYPE svg PUBLIC "-//W3C//DTD SVG 1.1//EN" "http://www.w3.org/Graphics/SVG/1.1/DTD/svg11.dtd">
<svg version="1.1" id="Layer_1" xmlns="http://www.w3.org/2000/svg" xmlns:xlink="http://www.w3.org/1999/xlink" x="0px" y="0px"
	 width="280px" height="67px" viewBox="0 0 280 67" enable-background="new 0 0 280 67" xml:space="preserve">
<g>
	<g>
		<defs>
			<path id="SVGID_1_" d="M5.914,53.182c-4.807,2.774-5.284,6.145-4.733,8.193c0.486,1.81,1.969,3.922,6.139,4.392
				c-0.018-0.048-0.83-2.229,3.699-4.844c4.913-2.839,6.922-4.034,6.922-4.034h0.001l17.874-10.41V33.432L5.914,53.182z"/>
		</defs>
		<clipPath id="SVGID_2_">
			<use xlink:href="#SVGID_1_"  overflow="visible"/>
		</clipPath>
		
			<linearGradient id="SVGID_3_" gradientUnits="userSpaceOnUse" x1="-281.4126" y1="335.3711" x2="-280.8846" y2="335.3711" gradientTransform="matrix(-65.8968 0 0 65.8968 -18508.4063 -22050.3125)">
			<stop  offset="0" style="stop-color:#FBBA00"/>
			<stop  offset="0.1043" style="stop-color:#FBBA00"/>
			<stop  offset="1" style="stop-color:#E68000"/>
		</linearGradient>
		<rect x="0.629" y="33.432" clip-path="url(#SVGID_2_)" fill="url(#SVGID_3_)" width="35.187" height="32.335"/>
	</g>
	<g>
		<defs>
			<path id="SVGID_4_" d="M28.586,5.109c0.04-0.056,0.081-0.112,0.12-0.168C28.443,5.294,28.192,5.67,27.96,6.07L5.589,44.945
				l16.56-10.563l13.158-23.061l-4.1,7.127c0,0-0.022-5.24-0.249-10.325c-0.225-3.451-1.563-3.801-1.732-3.831
				C29.006,4.552,28.792,4.825,28.586,5.109 M29.477,4.229c0.026-0.005,0.054-0.01,0.084-0.015
				C29.531,4.219,29.503,4.224,29.477,4.229 M29.561,4.214c0.021-0.004,0.045-0.008,0.068-0.011
				C29.606,4.206,29.583,4.21,29.561,4.214 M29.629,4.203c0.155-0.021,0.347-0.039,0.562-0.039c0.369,0,0.808,0.051,1.257,0.219
				c-0.449-0.168-0.887-0.22-1.256-0.22C29.977,4.163,29.785,4.182,29.629,4.203"/>
		</defs>
		<clipPath id="SVGID_5_">
			<use xlink:href="#SVGID_4_"  overflow="visible"/>
		</clipPath>
		
			<linearGradient id="SVGID_6_" gradientUnits="userSpaceOnUse" x1="-278.3179" y1="335.5098" x2="-277.7893" y2="335.5098" gradientTransform="matrix(-45.5217 78.8459 78.8459 45.5217 -39091.0938 6675.9375)">
			<stop  offset="0" style="stop-color:#FBBA00"/>
			<stop  offset="0.1534" style="stop-color:#FBBA00"/>
			<stop  offset="1" style="stop-color:#E68000"/>
		</linearGradient>
		<polygon clip-path="url(#SVGID_5_)" fill="url(#SVGID_6_)" points="52.989,14.358 27.876,57.796 -12.095,34.75 13.019,-8.688 		
			"/>
	</g>
	<g>
		<defs>
			<path id="SVGID_7_" d="M17.941,56.889c0,0-2.009,1.195-6.922,4.034c-4.529,2.614-3.717,4.796-3.699,4.844h0
				c-0.024-0.064-0.808-2.241,3.7-4.844C15.933,58.084,17.942,56.889,17.941,56.889L17.941,56.889z M28.707,4.941
				c-0.04,0.056-0.08,0.112-0.12,0.168c0.206-0.284,0.42-0.558,0.638-0.817c-0.002-0.001-0.004-0.001-0.006-0.001
				C29.043,4.499,28.872,4.715,28.707,4.941 M29.223,4.286c0.033-0.011,0.123-0.034,0.254-0.058
				c0.173-0.032,0.423-0.065,0.716-0.065c0.45,0,1.006,0.076,1.555,0.349c0.489,0.242,0.973,0.638,1.375,1.271
				c1.851,2.915,2.69,4.657,2.69,4.657l0.073,0.119L62.6,56.766l0.064,0.121l-0.14,0.002H35.813c0,0-20.204,5.301-22.915,5.968
				c-5.641,1.386-5.581,2.857-5.577,2.91L9.1,65.862h53.425c3.729,0,6.762-1.551,8.326-4.257c1.564-2.705,1.393-6.104-0.471-9.327
				L43.667,6.07C41.805,2.85,38.939,1,35.813,1C33.323,1,31.004,2.179,29.223,4.286"/>
		</defs>
		<clipPath id="SVGID_8_">
			<use xlink:href="#SVGID_7_"  overflow="visible"/>
		</clipPath>
		<g clip-path="url(#SVGID_8_)">
			<defs>
				<rect id="SVGID_9_" x="1" y="1.003" width="70.913" height="64.997"/>
			</defs>
			<clipPath id="SVGID_10_">
				<use xlink:href="#SVGID_9_"  overflow="visible"/>
			</clipPath>
			
				<linearGradient id="SVGID_11_" gradientUnits="userSpaceOnUse" x1="-277.166" y1="333.3223" x2="-276.6374" y2="333.3223" gradientTransform="matrix(106.3601 61.407 61.407 -106.36 9029.625 52494.25)">
				<stop  offset="0" style="stop-color:#FBBA00"/>
				<stop  offset="0.3" style="stop-color:#FBBA00"/>
				<stop  offset="0.5391" style="stop-color:#F5AA00"/>
				<stop  offset="1" style="stop-color:#E68000"/>
			</linearGradient>
			<polygon clip-path="url(#SVGID_10_)" fill="url(#SVGID_11_)" points="22.443,-26.979 100.011,17.743 55.406,94.898 
				-22.162,50.174 			"/>
		</g>
	</g>
	<polygon fill="#B3B2B2" points="7.321,65.766 7.322,65.768 7.322,65.766 	"/>
	<g>
		<defs>
			<path id="SVGID_12_" d="M17.941,56.889c0.001,0-2.008,1.195-6.92,4.034c-4.508,2.603-3.725,4.779-3.7,4.844h0.001
				c-0.004-0.053-0.064-1.524,5.577-2.91c2.711-0.667,22.915-5.968,22.915-5.968H17.941z"/>
		</defs>
		<clipPath id="SVGID_13_">
			<use xlink:href="#SVGID_12_"  overflow="visible"/>
		</clipPath>
		
			<linearGradient id="SVGID_14_" gradientUnits="userSpaceOnUse" x1="-277.1646" y1="333.0566" x2="-276.6364" y2="333.0566" gradientTransform="matrix(106.3601 61.407 61.407 -106.36 9029.625 52494.2813)">
			<stop  offset="0" style="stop-color:#AC8200"/>
			<stop  offset="0.3" style="stop-color:#AC8200"/>
			<stop  offset="0.5755" style="stop-color:#A87500"/>
			<stop  offset="1" style="stop-color:#9E5A00"/>
		</linearGradient>
		<polygon clip-path="url(#SVGID_13_)" fill="url(#SVGID_14_)" points="13.837,44.218 39.662,59.107 28.487,78.438 2.662,63.547 		
			"/>
	</g>
	<path fill="#B3B2B2" d="M29.242,4.28c-0.003,0.001-0.005,0.002-0.008,0.002C29.236,4.282,29.239,4.281,29.242,4.28 M29.223,4.285
		c-0.009,0.003-0.015,0.004-0.015,0.004s0.004,0.001,0.01,0.001C29.219,4.289,29.221,4.287,29.223,4.285 M31.448,4.383
		c0.586,0.22,1.188,0.638,1.673,1.399c1.851,2.915,2.692,4.657,2.692,4.657s-0.839-1.742-2.69-4.657
		c-0.402-0.632-0.887-1.027-1.375-1.27C31.648,4.463,31.548,4.42,31.448,4.383 M35.813,10.439l-0.072,0.119l-0.435,0.763
		L35.813,10.439z"/>
	<g>
		<defs>
			<path id="SVGID_15_" d="M29.477,4.229c-0.112,0.021-0.192,0.04-0.235,0.052c-0.002,0.001-0.005,0.001-0.008,0.002
				c-0.003,0.004-0.005,0.007-0.009,0.01c0.169,0.03,1.508,0.38,1.732,3.831c0.227,5.085,0.249,10.325,0.249,10.325l4.1-7.127
				l0.434-0.763l0.073-0.119c0,0-0.842-1.742-2.692-4.657c-0.484-0.762-1.086-1.18-1.673-1.399C31,4.215,30.561,4.164,30.191,4.164
				C29.898,4.164,29.649,4.196,29.477,4.229"/>
		</defs>
		<clipPath id="SVGID_16_">
			<use xlink:href="#SVGID_15_"  overflow="visible"/>
		</clipPath>
		
			<linearGradient id="SVGID_17_" gradientUnits="userSpaceOnUse" x1="-278.3203" y1="335.5488" x2="-277.7911" y2="335.5488" gradientTransform="matrix(-45.5662 78.9229 78.9229 45.5662 -39129.1875 6682.625)">
			<stop  offset="0" style="stop-color:#AC8200"/>
			<stop  offset="0.1534" style="stop-color:#AC8200"/>
			<stop  offset="1" style="stop-color:#9E5A00"/>
		</linearGradient>
		<polygon clip-path="url(#SVGID_16_)" fill="url(#SVGID_17_)" points="42.006,7.735 34.166,21.297 23.031,14.877 30.872,1.315 		
			"/>
	</g>
	<g>
		<defs>
			<path id="SVGID_18_" d="M33.123,5.782c1.851,2.915,2.69,4.657,2.69,4.657S34.974,8.697,33.123,5.782
				c-0.402-0.633-0.886-1.028-1.375-1.271C32.236,4.754,32.72,5.149,33.123,5.782 M29.223,4.286
				c-0.001,0.001-0.003,0.003-0.004,0.005c0.002,0,0.004,0,0.006,0.001c0.003-0.003,0.006-0.006,0.009-0.01
				c0.002,0,0.005-0.001,0.008-0.002C29.234,4.282,29.228,4.284,29.223,4.286 M29.241,4.28L29.241,4.28
				C29.242,4.28,29.242,4.28,29.241,4.28C29.242,4.28,29.242,4.28,29.241,4.28 M29.242,4.28c0.02-0.006,0.048-0.013,0.084-0.021
				C29.29,4.268,29.262,4.274,29.242,4.28 M29.327,4.259c0.025-0.006,0.055-0.012,0.088-0.02
				C29.381,4.247,29.352,4.253,29.327,4.259 M29.415,4.239c0.02-0.003,0.04-0.007,0.062-0.011
				C29.454,4.232,29.434,4.236,29.415,4.239"/>
		</defs>
		<clipPath id="SVGID_19_">
			<use xlink:href="#SVGID_18_"  overflow="visible"/>
		</clipPath>
		
			<linearGradient id="SVGID_20_" gradientUnits="userSpaceOnUse" x1="-277.1641" y1="332.5254" x2="-276.6353" y2="332.5254" gradientTransform="matrix(106.3601 61.407 61.407 -106.36 9088.5 52392.2813)">
			<stop  offset="0" style="stop-color:#AC8200"/>
			<stop  offset="0.3" style="stop-color:#AC8200"/>
			<stop  offset="0.5755" style="stop-color:#A87500"/>
			<stop  offset="1" style="stop-color:#9E5A00"/>
		</linearGradient>
		<polygon clip-path="url(#SVGID_19_)" fill="url(#SVGID_20_)" points="30.867,1.376 38.505,5.781 34.164,13.291 26.525,8.887 		"/>
	</g>
	<path fill="#FBBA00" d="M49.234,4.197c0.075,0,0.139-0.006,0.195-0.017l0.146-0.069l0.089-0.15
		c0.021-0.063,0.031-0.147,0.031-0.252c0-0.105-0.012-0.19-0.033-0.255l-0.095-0.146L49.42,3.24l-0.194-0.017h-0.539v0.974H49.234z
		 M50.431,5.522h-0.634l-0.591-0.878h-0.519v0.878h-0.552V2.768h1.101c0.172,0,0.32,0.013,0.446,0.039
		C49.81,2.83,49.917,2.876,50,2.945c0.085,0.068,0.148,0.161,0.19,0.284c0.042,0.121,0.063,0.277,0.063,0.472
		c0,0.136-0.011,0.25-0.032,0.346c-0.021,0.095-0.054,0.175-0.094,0.238l-0.155,0.153c-0.061,0.037-0.131,0.066-0.213,0.085
		L50.431,5.522z"/>
	<path fill="#FBBA00" d="M49.13,2.178c-1.096,0-1.989,0.891-1.989,1.984c0,1.096,0.894,1.985,1.989,1.985s1.988-0.89,1.988-1.985
		C51.118,3.068,50.226,2.178,49.13,2.178 M49.13,6.597c-1.346,0-2.436-1.091-2.436-2.435c0-1.342,1.09-2.433,2.436-2.433
		c1.343,0,2.436,1.091,2.436,2.433C51.566,5.506,50.473,6.597,49.13,6.597"/>
	<rect x="83.293" y="1.003" fill="#616364" width="0.793" height="64.767"/>
	<polygon fill="#616364" points="95.91,18.952 103.172,18.952 103.172,20.377 97.504,20.377 97.504,24.243 102.765,24.243 
		102.765,25.668 97.504,25.668 97.504,29.849 103.191,29.849 103.191,31.273 95.91,31.273 	"/>
	<polygon fill="#616364" points="105.546,18.952 112.808,18.952 112.808,20.377 107.139,20.377 107.139,24.243 112.4,24.243 
		112.4,25.668 107.139,25.668 107.139,29.849 112.827,29.849 112.827,31.273 105.546,31.273 	"/>
	<path fill="#616364" d="M118.479,31.458c-1.186,0-2.613-0.222-3.668-0.646l0.26-1.296c1.13,0.352,2.315,0.536,3.446,0.536
		c1.982,0,2.39-0.518,2.39-1.924c0-1.665-0.019-1.813-2.556-2.386c-2.983-0.667-3.335-1.24-3.335-3.793
		c0-2.146,0.889-3.183,3.946-3.183c1.074,0,2.353,0.148,3.335,0.407l-0.13,1.351c-0.982-0.223-2.149-0.352-3.168-0.352
		c-2.019,0-2.39,0.407-2.39,1.831c0,1.703,0,1.776,2.446,2.387c3.279,0.814,3.445,1.296,3.445,3.7
		C122.499,30.238,121.87,31.458,118.479,31.458"/>
	<polygon fill="#616364" points="127.392,20.377 123.705,20.377 123.705,18.952 132.672,18.952 132.672,20.377 128.985,20.377 
		128.985,31.273 127.392,31.273 	"/>
	<rect x="134.725" y="18.951" fill="#616364" width="1.592" height="12.322"/>
	<polygon fill="#616364" points="95.91,36.223 103.172,36.223 103.172,37.648 97.504,37.648 97.504,41.514 102.765,41.514 
		102.765,42.939 97.504,42.939 97.504,47.12 103.191,47.12 103.191,48.545 95.91,48.545 	"/>
	<polygon fill="#616364" points="108.492,37.648 104.804,37.648 104.804,36.223 113.771,36.223 113.771,37.648 110.085,37.648 
		110.085,48.545 108.492,48.545 	"/>
	<polygon fill="#616364" points="118.387,37.648 114.699,37.648 114.699,36.223 123.666,36.223 123.666,37.648 119.979,37.648 
		119.979,48.545 118.387,48.545 	"/>
	<polygon fill="#616364" points="125.428,36.223 132.689,36.223 132.689,37.648 127.021,37.648 127.021,41.514 132.283,41.514 
		132.283,42.939 127.021,42.939 127.021,47.12 132.709,47.12 132.709,48.545 125.428,48.545 	"/>
	<polygon fill="#616364" points="134.008,36.223 135.545,36.223 139.158,47.157 142.771,36.223 144.309,36.223 140.232,48.545 
		138.083,48.545 	"/>
	<path fill="#616364" d="M149.016,34.502c-0.406,0-0.686,0.297-0.964,0.611l-0.667-0.629c0.372-0.592,0.982-1.111,1.65-1.111
		c0.369,0,0.648,0.111,1.056,0.314c0.481,0.241,0.741,0.371,1.019,0.371c0.353,0,0.593-0.166,0.834-0.556l0.76,0.519
		c-0.315,0.685-0.834,1.166-1.594,1.166c-0.37,0-0.648-0.094-1.111-0.334C149.627,34.65,149.367,34.502,149.016,34.502
		 M147.163,44.955c0,1.518,0.926,2.369,2.871,2.369c1.946,0,2.872-0.852,2.872-2.369v-5.143c0-1.518-0.926-2.368-2.872-2.368
		c-1.945,0-2.871,0.851-2.871,2.368V44.955z M154.499,44.992c0,2.055-1.276,3.738-4.465,3.738c-3.185,0-4.464-1.684-4.464-3.738
		v-5.217c0-2.054,1.279-3.738,4.464-3.738c3.188,0,4.465,1.685,4.465,3.738V44.992z"/>
	<polygon fill="#616364" points="159.578,37.648 155.891,37.648 155.891,36.223 164.857,36.223 164.857,37.648 161.17,37.648 
		161.17,48.545 159.578,48.545 	"/>
	<polygon fill="#616364" points="168.459,47.12 173.813,47.12 173.813,48.545 166.865,48.545 166.865,36.223 168.459,36.223 	"/>
	<path fill="#616364" d="M184.319,36.223v8.863c0,2.016-1.167,3.644-4.372,3.644c-3.206,0-4.373-1.628-4.373-3.644v-8.863h1.594
		v8.77c0,1.518,0.834,2.313,2.779,2.313c1.944,0,2.778-0.795,2.778-2.313v-8.77H184.319z"/>
	<path fill="#616364" d="M190.209,48.729c-1.186,0-2.612-0.222-3.668-0.647l0.258-1.295c1.131,0.352,2.316,0.536,3.446,0.536
		c1.983,0,2.39-0.518,2.39-1.924c0-1.665-0.019-1.813-2.555-2.386c-2.984-0.667-3.336-1.24-3.336-3.793
		c0-2.146,0.891-3.183,3.947-3.183c1.074,0,2.353,0.148,3.334,0.407l-0.131,1.35c-0.98-0.222-2.147-0.351-3.168-0.351
		c-2.018,0-2.389,0.406-2.389,1.831c0,1.703,0,1.775,2.445,2.387c3.279,0.814,3.446,1.296,3.446,3.7
		C194.229,47.51,193.6,48.729,190.209,48.729"/>
	<path fill="#616364" d="M200.424,42.273l4.892,6.271h-1.909l-4.779-6.271l4.446-6.051h1.87L200.424,42.273z M198.238,48.545h-1.594
		V36.223h1.594V48.545z"/>
	<path fill="#616364" d="M210.043,34.502c-0.406,0-0.686,0.297-0.963,0.611l-0.668-0.629c0.37-0.592,0.982-1.111,1.648-1.111
		c0.371,0,0.649,0.111,1.057,0.314c0.482,0.241,0.742,0.371,1.02,0.371c0.352,0,0.592-0.166,0.832-0.556l0.762,0.519
		c-0.316,0.685-0.834,1.166-1.594,1.166c-0.371,0-0.648-0.094-1.111-0.334C210.654,34.65,210.395,34.502,210.043,34.502
		 M208.189,44.955c0,1.518,0.928,2.369,2.871,2.369c1.945,0,2.873-0.852,2.873-2.369v-5.143c0-1.518-0.928-2.368-2.873-2.368
		c-1.943,0-2.871,0.851-2.871,2.368V44.955z M215.527,44.992c0,2.055-1.279,3.738-4.467,3.738c-3.185,0-4.463-1.684-4.463-3.738
		v-5.217c0-2.054,1.278-3.738,4.463-3.738c3.188,0,4.467,1.685,4.467,3.738V44.992z"/>
	<path fill="#616364" d="M222.715,37.648h-3.057v5.031h3.057c1.52,0,2.039-0.426,2.039-1.628v-1.776
		C224.754,38.055,224.234,37.648,222.715,37.648 M222.678,44.086h-3.02v4.459h-1.593V36.223h4.705c2.649,0,3.575,1.147,3.575,3.034
		v1.776c0,1.461-0.537,2.461-1.963,2.868l3.205,4.644h-1.835L222.678,44.086z"/>
	<path fill="#616364" d="M230.443,45.012c0,1.572,0.463,2.275,2.574,2.275c0.648,0,1.465-0.057,2.314-0.223v-4.182h1.539v5.311
		c-1.204,0.352-2.631,0.535-3.909,0.535c-3.148,0-4.112-1.35-4.112-3.625v-5.421c0-2.497,1.24-3.646,4.316-3.646
		c1.056,0,2.278,0.131,3.427,0.39l-0.185,1.368c-1.186-0.203-2.297-0.314-3.316-0.314c-2.038,0-2.648,0.611-2.648,2.276V45.012z"/>
	<path fill="#616364" d="M243.157,42.273l4.892,6.271h-1.908l-4.78-6.271l4.445-6.051h1.872L243.157,42.273z M240.972,48.545h-1.595
		V36.223h1.595V48.545z"/>
	<path fill="#616364" d="M250.924,44.955c0,1.518,0.926,2.369,2.87,2.369c1.946,0,2.872-0.852,2.872-2.369v-5.143
		c0-1.518-0.926-2.368-2.872-2.368c-1.944,0-2.87,0.851-2.87,2.368V44.955z M258.26,44.992c0,2.055-1.278,3.738-4.466,3.738
		c-3.185,0-4.464-1.684-4.464-3.738v-5.217c0-2.054,1.279-3.738,4.464-3.738c3.188,0,4.466,1.685,4.466,3.738V44.992z"/>
	<path fill="#616364" d="M262.178,44.955c0,1.518,0.928,2.369,2.871,2.369c1.945,0,2.873-0.852,2.873-2.369v-5.143
		c0-1.518-0.928-2.368-2.873-2.368c-1.943,0-2.871,0.851-2.871,2.368V44.955z M269.514,44.992c0,2.055-1.277,3.738-4.465,3.738
		c-3.186,0-4.464-1.684-4.464-3.738v-5.217c0-2.054,1.278-3.738,4.464-3.738c3.188,0,4.465,1.685,4.465,3.738V44.992z"/>
	<polygon fill="#616364" points="273.646,47.12 279,47.12 279,48.545 272.053,48.545 272.053,36.223 273.646,36.223 	"/>
	<polygon fill="#616364" points="97.504,55.825 97.263,65.816 95.726,65.816 96.151,53.494 98.17,53.494 101.727,63.021 
		105.285,53.494 107.303,53.494 107.731,65.816 106.192,65.816 105.952,55.825 102.802,64.225 100.653,64.225 	"/>
	<path fill="#616364" d="M114.699,54.641l-2.204,6.827h4.409L114.699,54.641z M119.942,65.816h-1.612l-1.019-2.961h-5.243
		l-1.001,2.961h-1.611l4.168-12.322h2.149L119.942,65.816z"/>
	<rect x="122.076" y="53.494" fill="#616364" width="1.593" height="12.321"/>
	<polygon fill="#616364" points="127.943,55.325 127.943,65.815 126.423,65.815 126.423,53.494 128.609,53.494 133.982,64.039 
		133.982,53.494 135.5,53.494 135.5,65.815 133.314,65.815 	"/>
	<path fill="#616364" d="M139.642,62.227c0,1.517,0.927,2.368,2.872,2.368s2.871-0.852,2.871-2.368v-5.143
		c0-1.518-0.926-2.369-2.871-2.369s-2.872,0.852-2.872,2.369V62.227z M146.978,62.264c0,2.053-1.277,3.736-4.464,3.736
		c-3.188,0-4.466-1.684-4.466-3.736v-5.217c0-2.055,1.278-3.738,4.466-3.738c3.187,0,4.464,1.684,4.464,3.738V62.264z"/>
	<path fill="#616364" d="M154.166,54.919h-3.056v5.032h3.056c1.52,0,2.039-0.426,2.039-1.629v-1.775
		C156.205,55.325,155.686,54.919,154.166,54.919 M154.13,61.357h-3.02v4.459h-1.595V53.494h4.707c2.649,0,3.574,1.146,3.574,3.033
		v1.777c0,1.461-0.537,2.461-1.963,2.867l3.205,4.645h-1.834L154.13,61.357z"/>
</g>
</svg>
